<svg width="189" height="46" viewBox="0 0 189 46" fill="none" xmlns="http://www.w3.org/2000/svg">
<path d="M1 29.8095C8.89939 29.8572 9.78272 35.3595 15.4208 36.9195C21.059 38.4796 23.4127 18.3302 29.8445 17.6613C36.2762 16.9924 38.5437 43.4387 44.2681 42.0596C49.9924 40.6806 50.4221 28.7403 57.9705 26.7954C65.519 24.8504 64.8749 44.4452 71.6729 44.995C78.471 45.5447 78.3572 1 85.3754 1C92.3935 1 93.1031 31.277 100.52 30.77C107.937 30.263 108.085 13.4053 116.048 13.4053C124.011 13.4053 126.514 28.3748 133.515 29.7619C140.517 31.149 138.758 46.9617 145.955 42.0596C153.151 37.1576 152.2 18.5138 158.936 17.6613C165.671 16.8088 167.897 28.7475 173.702 30.77C179.507 32.7925 182.288 42.119 188 42.119" stroke="#50D1B2" stroke-width="2" stroke-linecap="round"/>
</svg>
