<svg width="213" height="46" viewBox="0 0 213 46" fill="none" xmlns="http://www.w3.org/2000/svg">
<path d="M1.09619 17.9652C9.83813 18.0082 10.9957 22.5885 17.3507 23.889C23.7057 25.1895 26.3668 45.5464 33.6163 44.9888C40.8659 44.4311 43.384 13.9217 49.8363 12.7721C56.2885 11.6225 56.8217 23.7258 65.33 22.1044C73.8382 20.483 73.0805 8.09402 80.743 8.55232C88.4054 9.01061 88.3261 16.0181 96.2367 16.0181C104.147 16.0181 104.903 1.42798 113.264 1.00535C121.624 0.58272 121.799 25.3504 130.775 25.3504C139.751 25.3504 142.573 42.534 150.465 43.6903C158.356 44.8467 156.394 16.3717 164.506 12.2852C172.617 8.19873 171.52 37.2598 179.112 36.5491C186.704 35.8385 189.192 16.1986 195.735 17.8846C202.278 19.5706 205.435 16.1045 211.874 16.1045" stroke="#EC8C56" stroke-width="2" stroke-linecap="round"/>
</svg>
