<svg width="16" height="17" viewBox="0 0 16 17" fill="none" xmlns="http://www.w3.org/2000/svg">
<path d="M7.99995 11.7617C6.40661 11.7617 5.11328 10.4683 5.11328 8.87501C5.11328 7.28168 6.40661 5.98834 7.99995 5.98834C9.59328 5.98834 10.8866 7.28168 10.8866 8.87501C10.8866 10.4683 9.59328 11.7617 7.99995 11.7617ZM7.99995 6.98834C6.95995 6.98834 6.11328 7.83501 6.11328 8.87501C6.11328 9.91501 6.95995 10.7617 7.99995 10.7617C9.03995 10.7617 9.88661 9.91501 9.88661 8.87501C9.88661 7.83501 9.03995 6.98834 7.99995 6.98834Z" fill="#949AAF"/>
<path d="M8.00022 14.8884C5.49355 14.8884 3.12688 13.4217 1.50021 10.875C0.793548 9.77503 0.793548 7.98169 1.50021 6.87503C3.13355 4.32836 5.50022 2.86169 8.00022 2.86169C10.5002 2.86169 12.8669 4.32836 14.4935 6.87503C15.2002 7.97503 15.2002 9.76836 14.4935 10.875C12.8669 13.4217 10.5002 14.8884 8.00022 14.8884ZM8.00022 3.86169C5.84688 3.86169 3.78688 5.15503 2.34688 7.41503C1.84688 8.19503 1.84688 9.55503 2.34688 10.335C3.78688 12.595 5.84688 13.8884 8.00022 13.8884C10.1535 13.8884 12.2135 12.595 13.6535 10.335C14.1535 9.55503 14.1535 8.19503 13.6535 7.41503C12.2135 5.15503 10.1535 3.86169 8.00022 3.86169Z" fill="#949AAF"/>
</svg>
