<svg width="169" height="66" viewBox="0 0 169 66" fill="none" xmlns="http://www.w3.org/2000/svg">
<path d="M54.0233 55.052C55.5819 54.174 57.9391 50.808 59.0233 49.052V48.052L56.0233 46.052C51.5961 48.1424 44.5646 52.6896 50.0233 52.052C57.0029 51.2367 52.0708 56.1519 54.0233 55.052Z" fill="#D834FF"/>
<path d="M57.0236 50.052C53.24 55.1402 42.6072 62.3131 35.0236 64.052C31.7826 64.7952 48.2632 64.0446 57.0236 50.052Z" fill="url(#paint0_linear_1_408)"/>
<path d="M60.0233 44.052C60.7528 41.972 58.7934 40.5409 58.0233 40.052C55.855 41.8298 52.7861 45.7853 55.0233 46.052C57.2605 46.3187 57.8409 47.3853 58.0233 48.052C58.307 47.6076 59.2938 46.132 60.0233 44.052Z" fill="#FF62FE"/>
<path d="M16.0233 44.052C7.38033 49.4408 7.84209 52.1069 9.0233 53.052L10.0233 54.052L20.0233 52.052L43.0233 38.052C39.6984 38.3445 31.1655 39.7575 25.0233 43.052C21.5492 44.9154 22.6644 43.6247 24.0188 42.0572L24.0233 42.052C25.5983 40.2292 24.6856 38.6511 16.0233 44.052Z" fill="url(#paint1_linear_1_408)"/>
<path d="M57.0234 24.052C54.4358 22.7237 46.6246 22.847 43.0234 23.052L45.0234 18.052L49.0234 16.052L59.0234 19.052C59.6057 21.3479 59.6111 25.3803 57.0234 24.052Z" fill="#D834FF"/>
<path d="M58.0235 16.052C56.7952 11.0453 51.8059 10.1563 49.0235 10.052C46.9474 12.1799 42.9929 16.803 46.0235 16.052C49.0541 15.301 55.3053 16.1341 58.0235 17.052C58.58 18.5749 59.1536 20.6582 58.0235 16.052Z" fill="#FF62FE"/>
<path d="M21.0234 62.052C19.1255 61.943 15.3057 60.0851 14.0234 59.052L18.0234 56.052L40.0234 46.052L60.0234 22.052C61.1536 22.5236 63.7742 26.6708 62.0234 36.052C60.263 45.4849 61.0234 37.052 61.0234 37.052C60.8278 37.3889 59.5434 40.0206 53.0234 48.052C44.8735 58.0913 28.7618 63.3782 26.0234 64.052C23.1547 64.7579 16.7203 63.7258 21.0234 63.052C28.2206 61.9251 23.3706 62.1868 21.0234 62.052Z" fill="url(#paint2_linear_1_408)"/>
<path d="M16.0235 4.05211C20.4794 0.441062 29.3758 -0.106861 33.0235 0.0521112H34.0235C37.9114 0.642581 43.4634 2.30826 36.0235 2.05211C26.129 1.71146 10.3391 8.65871 16.0235 4.05211Z" fill="url(#paint3_linear_1_408)"/>
<path d="M7.02325 13.0514C5.96573 11.8599 12.4541 6.31775 16.0232 4.05135C15.6268 4.8932 16.5606 5.32331 17.0232 5.05135C19.3366 3.69156 25.4509 1.25397 24.0232 4.05135C22.2387 7.54808 8.34515 14.5407 7.02325 13.0514Z" fill="url(#paint4_linear_1_408)"/>
<path d="M39.0235 40.0514C55.7393 28.5132 59.1075 19.5173 58.0235 16.0514C58.8039 17.9297 60.8293 23.1171 61.0235 24.0514C61.2187 24.9905 60.6089 25.7097 60.0235 27.0514C59.0867 29.198 54.7831 36.2305 43.0235 46.0514C28.324 58.3275 13.9342 59.0514 13.0235 59.0514C12.2649 59.0514 6.87578 53.8541 8.02345 54.0514C8.80396 54.1856 11.7443 54.2303 13.0235 54.0514C14.5844 53.8331 22.1454 51.7016 39.0235 40.0514Z" fill="url(#paint5_linear_1_408)"/>
<path d="M18.0234 13.0513C6.73277 18.4265 1.95629 23.7504 1.02344 26.0513V27.0513L8.02344 28.0513L36.0234 18.0513C38.1712 13.9788 39.311 7.08738 27.0234 13.0513C16.0245 18.3898 19.7517 14.9503 25.0234 12.0513C27.4966 10.5474 29.478 7.59811 18.0234 13.0513Z" fill="url(#paint6_linear_1_408)"/>
<path d="M2.02344 40.0513C0.765683 39.8367 0.0671095 35.2872 0.0234375 33.0513L10.0234 29.0513L32.0234 19.0513L39.0234 8.05133C37.0364 5.4354 34.9794 -0.882564 41.0234 1.05133C48.3603 3.39889 49.0234 4.70644 49.0234 9.05133C49.0234 13.8136 45.8884 18.8255 42.0234 23.0513C37.6222 27.8634 30.6659 31.3212 33.0234 29.0513C37.4125 24.8256 37.1371 23.5147 36.0234 24.0513C35.5212 24.2302 33.1111 26.261 29.0234 29.0513C24.9357 31.8417 15.1331 36.3745 10.0234 38.0513L10.0003 38.0589C7.5723 38.8557 3.27721 40.2653 2.02344 40.0513Z" fill="url(#paint7_linear_1_408)"/>
<path d="M28.0234 14.0513C40.5706 4.76891 36.0265 0.869084 32.0234 0.0513458C35.7508 -0.319952 39.7109 1.42299 41.0234 2.05135C43.5171 3.2448 46.0325 8.10599 34.0234 18.0513C22.2157 27.83 7.04508 33.6481 0.0234202 33.0513C-0.129701 30.2666 0.498379 25.7863 1.02342 26.0513C2.47681 26.7852 12.3394 25.6544 28.0234 14.0513Z" fill="url(#paint8_linear_1_408)"/>
<ellipse cx="3" cy="1" rx="3" ry="1" transform="matrix(0.885692 -0.464273 0.442011 0.89701 26.0234 32.0508)" fill="url(#paint9_linear_1_408)"/>
<ellipse cx="6.5" cy="1.5" rx="6.5" ry="1.5" transform="matrix(0.938181 -0.346144 0.32768 0.944789 32.0234 63.0508)" fill="url(#paint10_linear_1_408)"/>
<path d="M83.6058 48.0508V21.869H88.3487V44.0749H99.88V48.0508H83.6058ZM108.739 21.869V48.0508H103.996V21.869H108.739ZM135.391 21.869V48.0508H131.172L118.836 30.217H118.618V48.0508H113.875V21.869H118.12L130.444 39.7156H130.674V21.869H135.391ZM140.559 48.0508V21.869H145.302V33.8988H145.621L155.836 21.869H161.627L151.502 33.6175L161.717 48.0508H156.015L148.204 36.8263L145.302 40.2525V48.0508H140.559Z" fill="#7E7E8F"/>
<defs>
<linearGradient id="paint0_linear_1_408" x1="56.4907" y1="50.7308" x2="35.3487" y2="63.946" gradientUnits="userSpaceOnUse">
<stop stop-color="#85A0FF"/>
<stop offset="1" stop-color="#009AFF"/>
</linearGradient>
<linearGradient id="paint1_linear_1_408" x1="41.8542" y1="38.052" x2="8.46042" y2="52.0923" gradientUnits="userSpaceOnUse">
<stop stop-color="#FF67F5"/>
<stop offset="1" stop-color="#7A47FF"/>
</linearGradient>
<linearGradient id="paint2_linear_1_408" x1="62.6396" y1="27.3371" x2="17.2795" y2="60.9134" gradientUnits="userSpaceOnUse">
<stop stop-color="#DB04B1"/>
<stop offset="1" stop-color="#029FED"/>
</linearGradient>
<linearGradient id="paint3_linear_1_408" x1="33.7334" y1="0.48882" x2="16.4454" y2="5.01338" gradientUnits="userSpaceOnUse">
<stop stop-color="#B26EFF"/>
<stop offset="1" stop-color="#4944FF"/>
</linearGradient>
<linearGradient id="paint4_linear_1_408" x1="22.5828" y1="4.39321" x2="7.02784" y2="12.8439" gradientUnits="userSpaceOnUse">
<stop stop-color="#FF66DF"/>
<stop offset="1" stop-color="#2C75FF"/>
</linearGradient>
<linearGradient id="paint5_linear_1_408" x1="59.9833" y1="20.613" x2="10.6432" y2="55.4285" gradientUnits="userSpaceOnUse">
<stop stop-color="#FD02C7"/>
<stop offset="1" stop-color="#01ADFF"/>
</linearGradient>
<linearGradient id="paint6_linear_1_408" x1="27.509" y1="11.0621" x2="0.367417" y2="24.7295" gradientUnits="userSpaceOnUse">
<stop stop-color="#B16DFF"/>
<stop offset="1" stop-color="#4743FF"/>
</linearGradient>
<linearGradient id="paint7_linear_1_408" x1="45.8791" y1="3.06577" x2="-0.0288599" y2="35.5381" gradientUnits="userSpaceOnUse">
<stop stop-color="#E000AF"/>
<stop offset="1" stop-color="#00A0ED"/>
</linearGradient>
<linearGradient id="paint8_linear_1_408" x1="39.5725" y1="1.13371" x2="-0.242483" y2="28.9864" gradientUnits="userSpaceOnUse">
<stop stop-color="#FF00C6"/>
<stop offset="1" stop-color="#00ACFF"/>
</linearGradient>
<linearGradient id="paint9_linear_1_408" x1="5.9411" y1="0.884884" x2="-0.417363" y2="1.42427" gradientUnits="userSpaceOnUse">
<stop stop-color="#754ECD"/>
<stop offset="1" stop-color="#5C5FD4"/>
</linearGradient>
<linearGradient id="paint10_linear_1_408" x1="11.9325" y1="1.08807" x2="0.57741" y2="1.55159" gradientUnits="userSpaceOnUse">
<stop stop-color="#DD18CF"/>
<stop offset="1" stop-color="#04ACFF"/>
</linearGradient>
</defs>
</svg>
