<svg width="122" height="122" viewBox="0 0 122 122" fill="none" xmlns="http://www.w3.org/2000/svg">
<path d="M4.2069 0H0V4.2069H4.2069V0Z" fill="black"/>
<path d="M8.41379 0H4.2069V4.2069H8.41379V0Z" fill="black"/>
<path d="M12.6207 0H8.41379V4.2069H12.6207V0Z" fill="black"/>
<path d="M16.8276 0H12.6207V4.2069H16.8276V0Z" fill="black"/>
<path d="M21.0345 0H16.8276V4.2069H21.0345V0Z" fill="black"/>
<path d="M25.2414 0H21.0345V4.2069H25.2414V0Z" fill="black"/>
<path d="M29.4483 0H25.2414V4.2069H29.4483V0Z" fill="black"/>
<path d="M37.8621 0H33.6552V4.2069H37.8621V0Z" fill="black"/>
<path d="M46.2759 0H42.069V4.2069H46.2759V0Z" fill="black"/>
<path d="M67.3103 0H63.1034V4.2069H67.3103V0Z" fill="black"/>
<path d="M71.5172 0H67.3103V4.2069H71.5172V0Z" fill="black"/>
<path d="M79.931 0H75.7241V4.2069H79.931V0Z" fill="black"/>
<path d="M88.3448 0H84.1379V4.2069H88.3448V0Z" fill="black"/>
<path d="M96.7586 0H92.5517V4.2069H96.7586V0Z" fill="black"/>
<path d="M100.966 0H96.7586V4.2069H100.966V0Z" fill="black"/>
<path d="M105.172 0H100.966V4.2069H105.172V0Z" fill="black"/>
<path d="M109.379 0H105.172V4.2069H109.379V0Z" fill="black"/>
<path d="M113.586 0H109.379V4.2069H113.586V0Z" fill="black"/>
<path d="M117.793 0H113.586V4.2069H117.793V0Z" fill="black"/>
<path d="M122 0H117.793V4.2069H122V0Z" fill="black"/>
<path d="M4.2069 4.2069H0V8.41379H4.2069V4.2069Z" fill="black"/>
<path d="M29.4483 4.2069H25.2414V8.41379H29.4483V4.2069Z" fill="black"/>
<path d="M42.069 4.2069H37.8621V8.41379H42.069V4.2069Z" fill="black"/>
<path d="M46.2759 4.2069H42.069V8.41379H46.2759V4.2069Z" fill="black"/>
<path d="M50.4828 4.2069H46.2759V8.41379H50.4828V4.2069Z" fill="black"/>
<path d="M54.6897 4.2069H50.4828V8.41379H54.6897V4.2069Z" fill="black"/>
<path d="M63.1034 4.2069H58.8966V8.41379H63.1034V4.2069Z" fill="black"/>
<path d="M67.3103 4.2069H63.1034V8.41379H67.3103V4.2069Z" fill="black"/>
<path d="M96.7586 4.2069H92.5517V8.41379H96.7586V4.2069Z" fill="black"/>
<path d="M122 4.2069H117.793V8.41379H122V4.2069Z" fill="black"/>
<path d="M4.2069 8.41379H0V12.6207H4.2069V8.41379Z" fill="black"/>
<path d="M12.6207 8.41379H8.41379V12.6207H12.6207V8.41379Z" fill="black"/>
<path d="M16.8276 8.41379H12.6207V12.6207H16.8276V8.41379Z" fill="black"/>
<path d="M21.0345 8.41379H16.8276V12.6207H21.0345V8.41379Z" fill="black"/>
<path d="M29.4483 8.41379H25.2414V12.6207H29.4483V8.41379Z" fill="black"/>
<path d="M46.2759 8.41379H42.069V12.6207H46.2759V8.41379Z" fill="black"/>
<path d="M50.4828 8.41379H46.2759V12.6207H50.4828V8.41379Z" fill="black"/>
<path d="M54.6897 8.41379H50.4828V12.6207H54.6897V8.41379Z" fill="black"/>
<path d="M58.8966 8.41379H54.6897V12.6207H58.8966V8.41379Z" fill="black"/>
<path d="M67.3103 8.41379H63.1034V12.6207H67.3103V8.41379Z" fill="black"/>
<path d="M71.5172 8.41379H67.3103V12.6207H71.5172V8.41379Z" fill="black"/>
<path d="M84.1379 8.41379H79.931V12.6207H84.1379V8.41379Z" fill="black"/>
<path d="M88.3448 8.41379H84.1379V12.6207H88.3448V8.41379Z" fill="black"/>
<path d="M96.7586 8.41379H92.5517V12.6207H96.7586V8.41379Z" fill="black"/>
<path d="M105.172 8.41379H100.966V12.6207H105.172V8.41379Z" fill="black"/>
<path d="M109.379 8.41379H105.172V12.6207H109.379V8.41379Z" fill="black"/>
<path d="M113.586 8.41379H109.379V12.6207H113.586V8.41379Z" fill="black"/>
<path d="M122 8.41379H117.793V12.6207H122V8.41379Z" fill="black"/>
<path d="M4.2069 12.6207H0V16.8276H4.2069V12.6207Z" fill="black"/>
<path d="M12.6207 12.6207H8.41379V16.8276H12.6207V12.6207Z" fill="black"/>
<path d="M16.8276 12.6207H12.6207V16.8276H16.8276V12.6207Z" fill="black"/>
<path d="M21.0345 12.6207H16.8276V16.8276H21.0345V12.6207Z" fill="black"/>
<path d="M29.4483 12.6207H25.2414V16.8276H29.4483V12.6207Z" fill="black"/>
<path d="M37.8621 12.6207H33.6552V16.8276H37.8621V12.6207Z" fill="black"/>
<path d="M42.069 12.6207H37.8621V16.8276H42.069V12.6207Z" fill="black"/>
<path d="M46.2759 12.6207H42.069V16.8276H46.2759V12.6207Z" fill="black"/>
<path d="M50.4828 12.6207H46.2759V16.8276H50.4828V12.6207Z" fill="black"/>
<path d="M58.8966 12.6207H54.6897V16.8276H58.8966V12.6207Z" fill="black"/>
<path d="M71.5172 12.6207H67.3103V16.8276H71.5172V12.6207Z" fill="black"/>
<path d="M84.1379 12.6207H79.931V16.8276H84.1379V12.6207Z" fill="black"/>
<path d="M96.7586 12.6207H92.5517V16.8276H96.7586V12.6207Z" fill="black"/>
<path d="M105.172 12.6207H100.966V16.8276H105.172V12.6207Z" fill="black"/>
<path d="M109.379 12.6207H105.172V16.8276H109.379V12.6207Z" fill="black"/>
<path d="M113.586 12.6207H109.379V16.8276H113.586V12.6207Z" fill="black"/>
<path d="M122 12.6207H117.793V16.8276H122V12.6207Z" fill="black"/>
<path d="M4.2069 16.8276H0V21.0345H4.2069V16.8276Z" fill="black"/>
<path d="M12.6207 16.8276H8.41379V21.0345H12.6207V16.8276Z" fill="black"/>
<path d="M16.8276 16.8276H12.6207V21.0345H16.8276V16.8276Z" fill="black"/>
<path d="M21.0345 16.8276H16.8276V21.0345H21.0345V16.8276Z" fill="black"/>
<path d="M29.4483 16.8276H25.2414V21.0345H29.4483V16.8276Z" fill="black"/>
<path d="M58.8966 16.8276H54.6897V21.0345H58.8966V16.8276Z" fill="black"/>
<path d="M63.1034 16.8276H58.8966V21.0345H63.1034V16.8276Z" fill="black"/>
<path d="M67.3103 16.8276H63.1034V21.0345H67.3103V16.8276Z" fill="black"/>
<path d="M75.7241 16.8276H71.5172V21.0345H75.7241V16.8276Z" fill="black"/>
<path d="M96.7586 16.8276H92.5517V21.0345H96.7586V16.8276Z" fill="black"/>
<path d="M105.172 16.8276H100.966V21.0345H105.172V16.8276Z" fill="black"/>
<path d="M109.379 16.8276H105.172V21.0345H109.379V16.8276Z" fill="black"/>
<path d="M113.586 16.8276H109.379V21.0345H113.586V16.8276Z" fill="black"/>
<path d="M122 16.8276H117.793V21.0345H122V16.8276Z" fill="black"/>
<path d="M4.2069 21.0345H0V25.2414H4.2069V21.0345Z" fill="black"/>
<path d="M29.4483 21.0345H25.2414V25.2414H29.4483V21.0345Z" fill="black"/>
<path d="M37.8621 21.0345H33.6552V25.2414H37.8621V21.0345Z" fill="black"/>
<path d="M42.069 21.0345H37.8621V25.2414H42.069V21.0345Z" fill="black"/>
<path d="M46.2759 21.0345H42.069V25.2414H46.2759V21.0345Z" fill="black"/>
<path d="M50.4828 21.0345H46.2759V25.2414H50.4828V21.0345Z" fill="black"/>
<path d="M54.6897 21.0345H50.4828V25.2414H54.6897V21.0345Z" fill="black"/>
<path d="M58.8966 21.0345H54.6897V25.2414H58.8966V21.0345Z" fill="black"/>
<path d="M67.3103 21.0345H63.1034V25.2414H67.3103V21.0345Z" fill="black"/>
<path d="M71.5172 21.0345H67.3103V25.2414H71.5172V21.0345Z" fill="black"/>
<path d="M96.7586 21.0345H92.5517V25.2414H96.7586V21.0345Z" fill="black"/>
<path d="M122 21.0345H117.793V25.2414H122V21.0345Z" fill="black"/>
<path d="M4.2069 25.2414H0V29.4483H4.2069V25.2414Z" fill="black"/>
<path d="M8.41379 25.2414H4.2069V29.4483H8.41379V25.2414Z" fill="black"/>
<path d="M12.6207 25.2414H8.41379V29.4483H12.6207V25.2414Z" fill="black"/>
<path d="M16.8276 25.2414H12.6207V29.4483H16.8276V25.2414Z" fill="black"/>
<path d="M21.0345 25.2414H16.8276V29.4483H21.0345V25.2414Z" fill="black"/>
<path d="M25.2414 25.2414H21.0345V29.4483H25.2414V25.2414Z" fill="black"/>
<path d="M29.4483 25.2414H25.2414V29.4483H29.4483V25.2414Z" fill="black"/>
<path d="M37.8621 25.2414H33.6552V29.4483H37.8621V25.2414Z" fill="black"/>
<path d="M46.2759 25.2414H42.069V29.4483H46.2759V25.2414Z" fill="black"/>
<path d="M54.6897 25.2414H50.4828V29.4483H54.6897V25.2414Z" fill="black"/>
<path d="M63.1034 25.2414H58.8966V29.4483H63.1034V25.2414Z" fill="black"/>
<path d="M71.5172 25.2414H67.3103V29.4483H71.5172V25.2414Z" fill="black"/>
<path d="M79.931 25.2414H75.7241V29.4483H79.931V25.2414Z" fill="black"/>
<path d="M88.3448 25.2414H84.1379V29.4483H88.3448V25.2414Z" fill="black"/>
<path d="M96.7586 25.2414H92.5517V29.4483H96.7586V25.2414Z" fill="black"/>
<path d="M100.966 25.2414H96.7586V29.4483H100.966V25.2414Z" fill="black"/>
<path d="M105.172 25.2414H100.966V29.4483H105.172V25.2414Z" fill="black"/>
<path d="M109.379 25.2414H105.172V29.4483H109.379V25.2414Z" fill="black"/>
<path d="M113.586 25.2414H109.379V29.4483H113.586V25.2414Z" fill="black"/>
<path d="M117.793 25.2414H113.586V29.4483H117.793V25.2414Z" fill="black"/>
<path d="M122 25.2414H117.793V29.4483H122V25.2414Z" fill="black"/>
<path d="M42.069 29.4483H37.8621V33.6552H42.069V29.4483Z" fill="black"/>
<path d="M63.1034 29.4483H58.8966V33.6552H63.1034V29.4483Z" fill="black"/>
<path d="M75.7241 29.4483H71.5172V33.6552H75.7241V29.4483Z" fill="black"/>
<path d="M79.931 29.4483H75.7241V33.6552H79.931V29.4483Z" fill="black"/>
<path d="M84.1379 29.4483H79.931V33.6552H84.1379V29.4483Z" fill="black"/>
<path d="M88.3448 29.4483H84.1379V33.6552H88.3448V29.4483Z" fill="black"/>
<path d="M25.2414 33.6552H21.0345V37.8621H25.2414V33.6552Z" fill="black"/>
<path d="M29.4483 33.6552H25.2414V37.8621H29.4483V33.6552Z" fill="black"/>
<path d="M37.8621 33.6552H33.6552V37.8621H37.8621V33.6552Z" fill="black"/>
<path d="M42.069 33.6552H37.8621V37.8621H42.069V33.6552Z" fill="black"/>
<path d="M50.4828 33.6552H46.2759V37.8621H50.4828V33.6552Z" fill="black"/>
<path d="M54.6897 33.6552H50.4828V37.8621H54.6897V33.6552Z" fill="black"/>
<path d="M63.1034 33.6552H58.8966V37.8621H63.1034V33.6552Z" fill="black"/>
<path d="M67.3103 33.6552H63.1034V37.8621H67.3103V33.6552Z" fill="black"/>
<path d="M71.5172 33.6552H67.3103V37.8621H71.5172V33.6552Z" fill="black"/>
<path d="M75.7241 33.6552H71.5172V37.8621H75.7241V33.6552Z" fill="black"/>
<path d="M92.5517 33.6552H88.3448V37.8621H92.5517V33.6552Z" fill="black"/>
<path d="M100.966 33.6552H96.7586V37.8621H100.966V33.6552Z" fill="black"/>
<path d="M109.379 33.6552H105.172V37.8621H109.379V33.6552Z" fill="black"/>
<path d="M122 33.6552H117.793V37.8621H122V33.6552Z" fill="black"/>
<path d="M4.2069 37.8621H0V42.069H4.2069V37.8621Z" fill="black"/>
<path d="M16.8276 37.8621H12.6207V42.069H16.8276V37.8621Z" fill="black"/>
<path d="M33.6552 37.8621H29.4483V42.069H33.6552V37.8621Z" fill="black"/>
<path d="M37.8621 37.8621H33.6552V42.069H37.8621V37.8621Z" fill="black"/>
<path d="M42.069 37.8621H37.8621V42.069H42.069V37.8621Z" fill="black"/>
<path d="M67.3103 37.8621H63.1034V42.069H67.3103V37.8621Z" fill="black"/>
<path d="M75.7241 37.8621H71.5172V42.069H75.7241V37.8621Z" fill="black"/>
<path d="M84.1379 37.8621H79.931V42.069H84.1379V37.8621Z" fill="black"/>
<path d="M92.5517 37.8621H88.3448V42.069H92.5517V37.8621Z" fill="black"/>
<path d="M4.2069 42.069H0V46.2759H4.2069V42.069Z" fill="black"/>
<path d="M16.8276 42.069H12.6207V46.2759H16.8276V42.069Z" fill="black"/>
<path d="M21.0345 42.069H16.8276V46.2759H21.0345V42.069Z" fill="black"/>
<path d="M29.4483 42.069H25.2414V46.2759H29.4483V42.069Z" fill="black"/>
<path d="M33.6552 42.069H29.4483V46.2759H33.6552V42.069Z" fill="black"/>
<path d="M37.8621 42.069H33.6552V46.2759H37.8621V42.069Z" fill="black"/>
<path d="M46.2759 42.069H42.069V46.2759H46.2759V42.069Z" fill="black"/>
<path d="M54.6897 42.069H50.4828V46.2759H54.6897V42.069Z" fill="black"/>
<path d="M67.3103 42.069H63.1034V46.2759H67.3103V42.069Z" fill="black"/>
<path d="M79.931 42.069H75.7241V46.2759H79.931V42.069Z" fill="black"/>
<path d="M88.3448 42.069H84.1379V46.2759H88.3448V42.069Z" fill="black"/>
<path d="M96.7586 42.069H92.5517V46.2759H96.7586V42.069Z" fill="black"/>
<path d="M105.172 42.069H100.966V46.2759H105.172V42.069Z" fill="black"/>
<path d="M113.586 42.069H109.379V46.2759H113.586V42.069Z" fill="black"/>
<path d="M122 42.069H117.793V46.2759H122V42.069Z" fill="black"/>
<path d="M25.2414 46.2759H21.0345V50.4828H25.2414V46.2759Z" fill="black"/>
<path d="M46.2759 46.2759H42.069V50.4828H46.2759V46.2759Z" fill="black"/>
<path d="M58.8966 46.2759H54.6897V50.4828H58.8966V46.2759Z" fill="black"/>
<path d="M63.1034 46.2759H58.8966V50.4828H63.1034V46.2759Z" fill="black"/>
<path d="M71.5172 46.2759H67.3103V50.4828H71.5172V46.2759Z" fill="black"/>
<path d="M79.931 46.2759H75.7241V50.4828H79.931V46.2759Z" fill="black"/>
<path d="M84.1379 46.2759H79.931V50.4828H84.1379V46.2759Z" fill="black"/>
<path d="M88.3448 46.2759H84.1379V50.4828H88.3448V46.2759Z" fill="black"/>
<path d="M92.5517 46.2759H88.3448V50.4828H92.5517V46.2759Z" fill="black"/>
<path d="M100.966 46.2759H96.7586V50.4828H100.966V46.2759Z" fill="black"/>
<path d="M105.172 46.2759H100.966V50.4828H105.172V46.2759Z" fill="black"/>
<path d="M12.6207 50.4828H8.41379V54.6897H12.6207V50.4828Z" fill="black"/>
<path d="M29.4483 50.4828H25.2414V54.6897H29.4483V50.4828Z" fill="black"/>
<path d="M37.8621 50.4828H33.6552V54.6897H37.8621V50.4828Z" fill="black"/>
<path d="M42.069 50.4828H37.8621V54.6897H42.069V50.4828Z" fill="black"/>
<path d="M46.2759 50.4828H42.069V54.6897H46.2759V50.4828Z" fill="black"/>
<path d="M50.4828 50.4828H46.2759V54.6897H50.4828V50.4828Z" fill="black"/>
<path d="M54.6897 50.4828H50.4828V54.6897H54.6897V50.4828Z" fill="black"/>
<path d="M63.1034 50.4828H58.8966V54.6897H63.1034V50.4828Z" fill="black"/>
<path d="M67.3103 50.4828H63.1034V54.6897H67.3103V50.4828Z" fill="black"/>
<path d="M79.931 50.4828H75.7241V54.6897H79.931V50.4828Z" fill="black"/>
<path d="M84.1379 50.4828H79.931V54.6897H84.1379V50.4828Z" fill="black"/>
<path d="M96.7586 50.4828H92.5517V54.6897H96.7586V50.4828Z" fill="black"/>
<path d="M105.172 50.4828H100.966V54.6897H105.172V50.4828Z" fill="black"/>
<path d="M113.586 50.4828H109.379V54.6897H113.586V50.4828Z" fill="black"/>
<path d="M122 50.4828H117.793V54.6897H122V50.4828Z" fill="black"/>
<path d="M4.2069 54.6897H0V58.8966H4.2069V54.6897Z" fill="black"/>
<path d="M8.41379 54.6897H4.2069V58.8966H8.41379V54.6897Z" fill="black"/>
<path d="M12.6207 54.6897H8.41379V58.8966H12.6207V54.6897Z" fill="black"/>
<path d="M16.8276 54.6897H12.6207V58.8966H16.8276V54.6897Z" fill="black"/>
<path d="M21.0345 54.6897H16.8276V58.8966H21.0345V54.6897Z" fill="black"/>
<path d="M25.2414 54.6897H21.0345V58.8966H25.2414V54.6897Z" fill="black"/>
<path d="M67.3103 54.6897H63.1034V58.8966H67.3103V54.6897Z" fill="black"/>
<path d="M71.5172 54.6897H67.3103V58.8966H71.5172V54.6897Z" fill="black"/>
<path d="M79.931 54.6897H75.7241V58.8966H79.931V54.6897Z" fill="black"/>
<path d="M84.1379 54.6897H79.931V58.8966H84.1379V54.6897Z" fill="black"/>
<path d="M92.5517 54.6897H88.3448V58.8966H92.5517V54.6897Z" fill="black"/>
<path d="M96.7586 54.6897H92.5517V58.8966H96.7586V54.6897Z" fill="black"/>
<path d="M100.966 54.6897H96.7586V58.8966H100.966V54.6897Z" fill="black"/>
<path d="M117.793 54.6897H113.586V58.8966H117.793V54.6897Z" fill="black"/>
<path d="M122 54.6897H117.793V58.8966H122V54.6897Z" fill="black"/>
<path d="M8.41379 58.8966H4.2069V63.1034H8.41379V58.8966Z" fill="black"/>
<path d="M16.8276 58.8966H12.6207V63.1034H16.8276V58.8966Z" fill="black"/>
<path d="M21.0345 58.8966H16.8276V63.1034H21.0345V58.8966Z" fill="black"/>
<path d="M25.2414 58.8966H21.0345V63.1034H25.2414V58.8966Z" fill="black"/>
<path d="M29.4483 58.8966H25.2414V63.1034H29.4483V58.8966Z" fill="black"/>
<path d="M33.6552 58.8966H29.4483V63.1034H33.6552V58.8966Z" fill="black"/>
<path d="M42.069 58.8966H37.8621V63.1034H42.069V58.8966Z" fill="black"/>
<path d="M50.4828 58.8966H46.2759V63.1034H50.4828V58.8966Z" fill="black"/>
<path d="M67.3103 58.8966H63.1034V63.1034H67.3103V58.8966Z" fill="black"/>
<path d="M71.5172 58.8966H67.3103V63.1034H71.5172V58.8966Z" fill="black"/>
<path d="M88.3448 58.8966H84.1379V63.1034H88.3448V58.8966Z" fill="black"/>
<path d="M96.7586 58.8966H92.5517V63.1034H96.7586V58.8966Z" fill="black"/>
<path d="M105.172 58.8966H100.966V63.1034H105.172V58.8966Z" fill="black"/>
<path d="M109.379 58.8966H105.172V63.1034H109.379V58.8966Z" fill="black"/>
<path d="M122 58.8966H117.793V63.1034H122V58.8966Z" fill="black"/>
<path d="M8.41379 63.1034H4.2069V67.3103H8.41379V63.1034Z" fill="black"/>
<path d="M16.8276 63.1034H12.6207V67.3103H16.8276V63.1034Z" fill="black"/>
<path d="M37.8621 63.1034H33.6552V67.3103H37.8621V63.1034Z" fill="black"/>
<path d="M42.069 63.1034H37.8621V67.3103H42.069V63.1034Z" fill="black"/>
<path d="M50.4828 63.1034H46.2759V67.3103H50.4828V63.1034Z" fill="black"/>
<path d="M58.8966 63.1034H54.6897V67.3103H58.8966V63.1034Z" fill="black"/>
<path d="M63.1034 63.1034H58.8966V67.3103H63.1034V63.1034Z" fill="black"/>
<path d="M71.5172 63.1034H67.3103V67.3103H71.5172V63.1034Z" fill="black"/>
<path d="M75.7241 63.1034H71.5172V67.3103H75.7241V63.1034Z" fill="black"/>
<path d="M84.1379 63.1034H79.931V67.3103H84.1379V63.1034Z" fill="black"/>
<path d="M92.5517 63.1034H88.3448V67.3103H92.5517V63.1034Z" fill="black"/>
<path d="M96.7586 63.1034H92.5517V67.3103H96.7586V63.1034Z" fill="black"/>
<path d="M105.172 63.1034H100.966V67.3103H105.172V63.1034Z" fill="black"/>
<path d="M109.379 63.1034H105.172V67.3103H109.379V63.1034Z" fill="black"/>
<path d="M117.793 63.1034H113.586V67.3103H117.793V63.1034Z" fill="black"/>
<path d="M4.2069 67.3103H0V71.5172H4.2069V67.3103Z" fill="black"/>
<path d="M12.6207 67.3103H8.41379V71.5172H12.6207V67.3103Z" fill="black"/>
<path d="M21.0345 67.3103H16.8276V71.5172H21.0345V67.3103Z" fill="black"/>
<path d="M29.4483 67.3103H25.2414V71.5172H29.4483V67.3103Z" fill="black"/>
<path d="M46.2759 67.3103H42.069V71.5172H46.2759V67.3103Z" fill="black"/>
<path d="M54.6897 67.3103H50.4828V71.5172H54.6897V67.3103Z" fill="black"/>
<path d="M63.1034 67.3103H58.8966V71.5172H63.1034V67.3103Z" fill="black"/>
<path d="M67.3103 67.3103H63.1034V71.5172H67.3103V67.3103Z" fill="black"/>
<path d="M71.5172 67.3103H67.3103V71.5172H71.5172V67.3103Z" fill="black"/>
<path d="M84.1379 67.3103H79.931V71.5172H84.1379V67.3103Z" fill="black"/>
<path d="M88.3448 67.3103H84.1379V71.5172H88.3448V67.3103Z" fill="black"/>
<path d="M92.5517 67.3103H88.3448V71.5172H92.5517V67.3103Z" fill="black"/>
<path d="M100.966 67.3103H96.7586V71.5172H100.966V67.3103Z" fill="black"/>
<path d="M109.379 67.3103H105.172V71.5172H109.379V67.3103Z" fill="black"/>
<path d="M8.41379 71.5172H4.2069V75.7241H8.41379V71.5172Z" fill="black"/>
<path d="M12.6207 71.5172H8.41379V75.7241H12.6207V71.5172Z" fill="black"/>
<path d="M33.6552 71.5172H29.4483V75.7241H33.6552V71.5172Z" fill="black"/>
<path d="M46.2759 71.5172H42.069V75.7241H46.2759V71.5172Z" fill="black"/>
<path d="M54.6897 71.5172H50.4828V75.7241H54.6897V71.5172Z" fill="black"/>
<path d="M58.8966 71.5172H54.6897V75.7241H58.8966V71.5172Z" fill="black"/>
<path d="M67.3103 71.5172H63.1034V75.7241H67.3103V71.5172Z" fill="black"/>
<path d="M71.5172 71.5172H67.3103V75.7241H71.5172V71.5172Z" fill="black"/>
<path d="M79.931 71.5172H75.7241V75.7241H79.931V71.5172Z" fill="black"/>
<path d="M84.1379 71.5172H79.931V75.7241H84.1379V71.5172Z" fill="black"/>
<path d="M96.7586 71.5172H92.5517V75.7241H96.7586V71.5172Z" fill="black"/>
<path d="M4.2069 75.7241H0V79.931H4.2069V75.7241Z" fill="black"/>
<path d="M8.41379 75.7241H4.2069V79.931H8.41379V75.7241Z" fill="black"/>
<path d="M12.6207 75.7241H8.41379V79.931H12.6207V75.7241Z" fill="black"/>
<path d="M16.8276 75.7241H12.6207V79.931H16.8276V75.7241Z" fill="black"/>
<path d="M21.0345 75.7241H16.8276V79.931H21.0345V75.7241Z" fill="black"/>
<path d="M29.4483 75.7241H25.2414V79.931H29.4483V75.7241Z" fill="black"/>
<path d="M33.6552 75.7241H29.4483V79.931H33.6552V75.7241Z" fill="black"/>
<path d="M37.8621 75.7241H33.6552V79.931H37.8621V75.7241Z" fill="black"/>
<path d="M58.8966 75.7241H54.6897V79.931H58.8966V75.7241Z" fill="black"/>
<path d="M67.3103 75.7241H63.1034V79.931H67.3103V75.7241Z" fill="black"/>
<path d="M75.7241 75.7241H71.5172V79.931H75.7241V75.7241Z" fill="black"/>
<path d="M79.931 75.7241H75.7241V79.931H79.931V75.7241Z" fill="black"/>
<path d="M84.1379 75.7241H79.931V79.931H84.1379V75.7241Z" fill="black"/>
<path d="M88.3448 75.7241H84.1379V79.931H88.3448V75.7241Z" fill="black"/>
<path d="M100.966 75.7241H96.7586V79.931H100.966V75.7241Z" fill="black"/>
<path d="M105.172 75.7241H100.966V79.931H105.172V75.7241Z" fill="black"/>
<path d="M4.2069 79.931H0V84.1379H4.2069V79.931Z" fill="black"/>
<path d="M25.2414 79.931H21.0345V84.1379H25.2414V79.931Z" fill="black"/>
<path d="M37.8621 79.931H33.6552V84.1379H37.8621V79.931Z" fill="black"/>
<path d="M46.2759 79.931H42.069V84.1379H46.2759V79.931Z" fill="black"/>
<path d="M50.4828 79.931H46.2759V84.1379H50.4828V79.931Z" fill="black"/>
<path d="M58.8966 79.931H54.6897V84.1379H58.8966V79.931Z" fill="black"/>
<path d="M84.1379 79.931H79.931V84.1379H84.1379V79.931Z" fill="black"/>
<path d="M109.379 79.931H105.172V84.1379H109.379V79.931Z" fill="black"/>
<path d="M113.586 79.931H109.379V84.1379H113.586V79.931Z" fill="black"/>
<path d="M117.793 79.931H113.586V84.1379H117.793V79.931Z" fill="black"/>
<path d="M12.6207 84.1379H8.41379V88.3448H12.6207V84.1379Z" fill="black"/>
<path d="M29.4483 84.1379H25.2414V88.3448H29.4483V84.1379Z" fill="black"/>
<path d="M42.069 84.1379H37.8621V88.3448H42.069V84.1379Z" fill="black"/>
<path d="M46.2759 84.1379H42.069V88.3448H46.2759V84.1379Z" fill="black"/>
<path d="M58.8966 84.1379H54.6897V88.3448H58.8966V84.1379Z" fill="black"/>
<path d="M67.3103 84.1379H63.1034V88.3448H67.3103V84.1379Z" fill="black"/>
<path d="M71.5172 84.1379H67.3103V88.3448H71.5172V84.1379Z" fill="black"/>
<path d="M75.7241 84.1379H71.5172V88.3448H75.7241V84.1379Z" fill="black"/>
<path d="M88.3448 84.1379H84.1379V88.3448H88.3448V84.1379Z" fill="black"/>
<path d="M92.5517 84.1379H88.3448V88.3448H92.5517V84.1379Z" fill="black"/>
<path d="M96.7586 84.1379H92.5517V88.3448H96.7586V84.1379Z" fill="black"/>
<path d="M100.966 84.1379H96.7586V88.3448H100.966V84.1379Z" fill="black"/>
<path d="M105.172 84.1379H100.966V88.3448H105.172V84.1379Z" fill="black"/>
<path d="M117.793 84.1379H113.586V88.3448H117.793V84.1379Z" fill="black"/>
<path d="M122 84.1379H117.793V88.3448H122V84.1379Z" fill="black"/>
<path d="M37.8621 88.3448H33.6552V92.5517H37.8621V88.3448Z" fill="black"/>
<path d="M54.6897 88.3448H50.4828V92.5517H54.6897V88.3448Z" fill="black"/>
<path d="M63.1034 88.3448H58.8966V92.5517H63.1034V88.3448Z" fill="black"/>
<path d="M67.3103 88.3448H63.1034V92.5517H67.3103V88.3448Z" fill="black"/>
<path d="M71.5172 88.3448H67.3103V92.5517H71.5172V88.3448Z" fill="black"/>
<path d="M75.7241 88.3448H71.5172V92.5517H75.7241V88.3448Z" fill="black"/>
<path d="M79.931 88.3448H75.7241V92.5517H79.931V88.3448Z" fill="black"/>
<path d="M88.3448 88.3448H84.1379V92.5517H88.3448V88.3448Z" fill="black"/>
<path d="M105.172 88.3448H100.966V92.5517H105.172V88.3448Z" fill="black"/>
<path d="M113.586 88.3448H109.379V92.5517H113.586V88.3448Z" fill="black"/>
<path d="M117.793 88.3448H113.586V92.5517H117.793V88.3448Z" fill="black"/>
<path d="M4.2069 92.5517H0V96.7586H4.2069V92.5517Z" fill="black"/>
<path d="M8.41379 92.5517H4.2069V96.7586H8.41379V92.5517Z" fill="black"/>
<path d="M12.6207 92.5517H8.41379V96.7586H12.6207V92.5517Z" fill="black"/>
<path d="M16.8276 92.5517H12.6207V96.7586H16.8276V92.5517Z" fill="black"/>
<path d="M21.0345 92.5517H16.8276V96.7586H21.0345V92.5517Z" fill="black"/>
<path d="M25.2414 92.5517H21.0345V96.7586H25.2414V92.5517Z" fill="black"/>
<path d="M29.4483 92.5517H25.2414V96.7586H29.4483V92.5517Z" fill="black"/>
<path d="M42.069 92.5517H37.8621V96.7586H42.069V92.5517Z" fill="black"/>
<path d="M50.4828 92.5517H46.2759V96.7586H50.4828V92.5517Z" fill="black"/>
<path d="M54.6897 92.5517H50.4828V96.7586H54.6897V92.5517Z" fill="black"/>
<path d="M63.1034 92.5517H58.8966V96.7586H63.1034V92.5517Z" fill="black"/>
<path d="M75.7241 92.5517H71.5172V96.7586H75.7241V92.5517Z" fill="black"/>
<path d="M88.3448 92.5517H84.1379V96.7586H88.3448V92.5517Z" fill="black"/>
<path d="M96.7586 92.5517H92.5517V96.7586H96.7586V92.5517Z" fill="black"/>
<path d="M105.172 92.5517H100.966V96.7586H105.172V92.5517Z" fill="black"/>
<path d="M109.379 92.5517H105.172V96.7586H109.379V92.5517Z" fill="black"/>
<path d="M122 92.5517H117.793V96.7586H122V92.5517Z" fill="black"/>
<path d="M4.2069 96.7586H0V100.966H4.2069V96.7586Z" fill="black"/>
<path d="M29.4483 96.7586H25.2414V100.966H29.4483V96.7586Z" fill="black"/>
<path d="M37.8621 96.7586H33.6552V100.966H37.8621V96.7586Z" fill="black"/>
<path d="M46.2759 96.7586H42.069V100.966H46.2759V96.7586Z" fill="black"/>
<path d="M50.4828 96.7586H46.2759V100.966H50.4828V96.7586Z" fill="black"/>
<path d="M58.8966 96.7586H54.6897V100.966H58.8966V96.7586Z" fill="black"/>
<path d="M75.7241 96.7586H71.5172V100.966H75.7241V96.7586Z" fill="black"/>
<path d="M79.931 96.7586H75.7241V100.966H79.931V96.7586Z" fill="black"/>
<path d="M84.1379 96.7586H79.931V100.966H84.1379V96.7586Z" fill="black"/>
<path d="M88.3448 96.7586H84.1379V100.966H88.3448V96.7586Z" fill="black"/>
<path d="M105.172 96.7586H100.966V100.966H105.172V96.7586Z" fill="black"/>
<path d="M109.379 96.7586H105.172V100.966H109.379V96.7586Z" fill="black"/>
<path d="M117.793 96.7586H113.586V100.966H117.793V96.7586Z" fill="black"/>
<path d="M4.2069 100.966H0V105.172H4.2069V100.966Z" fill="black"/>
<path d="M12.6207 100.966H8.41379V105.172H12.6207V100.966Z" fill="black"/>
<path d="M16.8276 100.966H12.6207V105.172H16.8276V100.966Z" fill="black"/>
<path d="M21.0345 100.966H16.8276V105.172H21.0345V100.966Z" fill="black"/>
<path d="M29.4483 100.966H25.2414V105.172H29.4483V100.966Z" fill="black"/>
<path d="M46.2759 100.966H42.069V105.172H46.2759V100.966Z" fill="black"/>
<path d="M50.4828 100.966H46.2759V105.172H50.4828V100.966Z" fill="black"/>
<path d="M63.1034 100.966H58.8966V105.172H63.1034V100.966Z" fill="black"/>
<path d="M67.3103 100.966H63.1034V105.172H67.3103V100.966Z" fill="black"/>
<path d="M79.931 100.966H75.7241V105.172H79.931V100.966Z" fill="black"/>
<path d="M84.1379 100.966H79.931V105.172H84.1379V100.966Z" fill="black"/>
<path d="M88.3448 100.966H84.1379V105.172H88.3448V100.966Z" fill="black"/>
<path d="M92.5517 100.966H88.3448V105.172H92.5517V100.966Z" fill="black"/>
<path d="M96.7586 100.966H92.5517V105.172H96.7586V100.966Z" fill="black"/>
<path d="M100.966 100.966H96.7586V105.172H100.966V100.966Z" fill="black"/>
<path d="M105.172 100.966H100.966V105.172H105.172V100.966Z" fill="black"/>
<path d="M109.379 100.966H105.172V105.172H109.379V100.966Z" fill="black"/>
<path d="M113.586 100.966H109.379V105.172H113.586V100.966Z" fill="black"/>
<path d="M117.793 100.966H113.586V105.172H117.793V100.966Z" fill="black"/>
<path d="M122 100.966H117.793V105.172H122V100.966Z" fill="black"/>
<path d="M4.2069 105.172H0V109.379H4.2069V105.172Z" fill="black"/>
<path d="M12.6207 105.172H8.41379V109.379H12.6207V105.172Z" fill="black"/>
<path d="M16.8276 105.172H12.6207V109.379H16.8276V105.172Z" fill="black"/>
<path d="M21.0345 105.172H16.8276V109.379H21.0345V105.172Z" fill="black"/>
<path d="M29.4483 105.172H25.2414V109.379H29.4483V105.172Z" fill="black"/>
<path d="M42.069 105.172H37.8621V109.379H42.069V105.172Z" fill="black"/>
<path d="M46.2759 105.172H42.069V109.379H46.2759V105.172Z" fill="black"/>
<path d="M50.4828 105.172H46.2759V109.379H50.4828V105.172Z" fill="black"/>
<path d="M54.6897 105.172H50.4828V109.379H54.6897V105.172Z" fill="black"/>
<path d="M67.3103 105.172H63.1034V109.379H67.3103V105.172Z" fill="black"/>
<path d="M71.5172 105.172H67.3103V109.379H71.5172V105.172Z" fill="black"/>
<path d="M79.931 105.172H75.7241V109.379H79.931V105.172Z" fill="black"/>
<path d="M105.172 105.172H100.966V109.379H105.172V105.172Z" fill="black"/>
<path d="M109.379 105.172H105.172V109.379H109.379V105.172Z" fill="black"/>
<path d="M4.2069 109.379H0V113.586H4.2069V109.379Z" fill="black"/>
<path d="M12.6207 109.379H8.41379V113.586H12.6207V109.379Z" fill="black"/>
<path d="M16.8276 109.379H12.6207V113.586H16.8276V109.379Z" fill="black"/>
<path d="M21.0345 109.379H16.8276V113.586H21.0345V109.379Z" fill="black"/>
<path d="M29.4483 109.379H25.2414V113.586H29.4483V109.379Z" fill="black"/>
<path d="M46.2759 109.379H42.069V113.586H46.2759V109.379Z" fill="black"/>
<path d="M50.4828 109.379H46.2759V113.586H50.4828V109.379Z" fill="black"/>
<path d="M58.8966 109.379H54.6897V113.586H58.8966V109.379Z" fill="black"/>
<path d="M63.1034 109.379H58.8966V113.586H63.1034V109.379Z" fill="black"/>
<path d="M88.3448 109.379H84.1379V113.586H88.3448V109.379Z" fill="black"/>
<path d="M92.5517 109.379H88.3448V113.586H92.5517V109.379Z" fill="black"/>
<path d="M100.966 109.379H96.7586V113.586H100.966V109.379Z" fill="black"/>
<path d="M4.2069 113.586H0V117.793H4.2069V113.586Z" fill="black"/>
<path d="M29.4483 113.586H25.2414V117.793H29.4483V113.586Z" fill="black"/>
<path d="M46.2759 113.586H42.069V117.793H46.2759V113.586Z" fill="black"/>
<path d="M50.4828 113.586H46.2759V117.793H50.4828V113.586Z" fill="black"/>
<path d="M54.6897 113.586H50.4828V117.793H54.6897V113.586Z" fill="black"/>
<path d="M63.1034 113.586H58.8966V117.793H63.1034V113.586Z" fill="black"/>
<path d="M67.3103 113.586H63.1034V117.793H67.3103V113.586Z" fill="black"/>
<path d="M71.5172 113.586H67.3103V117.793H71.5172V113.586Z" fill="black"/>
<path d="M79.931 113.586H75.7241V117.793H79.931V113.586Z" fill="black"/>
<path d="M84.1379 113.586H79.931V117.793H84.1379V113.586Z" fill="black"/>
<path d="M92.5517 113.586H88.3448V117.793H92.5517V113.586Z" fill="black"/>
<path d="M96.7586 113.586H92.5517V117.793H96.7586V113.586Z" fill="black"/>
<path d="M100.966 113.586H96.7586V117.793H100.966V113.586Z" fill="black"/>
<path d="M105.172 113.586H100.966V117.793H105.172V113.586Z" fill="black"/>
<path d="M117.793 113.586H113.586V117.793H117.793V113.586Z" fill="black"/>
<path d="M122 113.586H117.793V117.793H122V113.586Z" fill="black"/>
<path d="M4.2069 117.793H0V122H4.2069V117.793Z" fill="black"/>
<path d="M8.41379 117.793H4.2069V122H8.41379V117.793Z" fill="black"/>
<path d="M12.6207 117.793H8.41379V122H12.6207V117.793Z" fill="black"/>
<path d="M16.8276 117.793H12.6207V122H16.8276V117.793Z" fill="black"/>
<path d="M21.0345 117.793H16.8276V122H21.0345V117.793Z" fill="black"/>
<path d="M25.2414 117.793H21.0345V122H25.2414V117.793Z" fill="black"/>
<path d="M29.4483 117.793H25.2414V122H29.4483V117.793Z" fill="black"/>
<path d="M42.069 117.793H37.8621V122H42.069V117.793Z" fill="black"/>
<path d="M54.6897 117.793H50.4828V122H54.6897V117.793Z" fill="black"/>
<path d="M63.1034 117.793H58.8966V122H63.1034V117.793Z" fill="black"/>
<path d="M75.7241 117.793H71.5172V122H75.7241V117.793Z" fill="black"/>
<path d="M79.931 117.793H75.7241V122H79.931V117.793Z" fill="black"/>
<path d="M84.1379 117.793H79.931V122H84.1379V117.793Z" fill="black"/>
<path d="M92.5517 117.793H88.3448V122H92.5517V117.793Z" fill="black"/>
<path d="M109.379 117.793H105.172V122H109.379V117.793Z" fill="black"/>
<path d="M113.586 117.793H109.379V122H113.586V117.793Z" fill="black"/>
</svg>
