<svg width="18" height="19" viewBox="0 0 18 19" fill="none" xmlns="http://www.w3.org/2000/svg">
<path d="M13 10.2605V14.4199C13 16.2257 11.7743 17.4219 9.94357 17.4219H5.05643C3.22571 17.4219 2 16.2257 2 14.4199V8.4238C2 6.61802 3.22571 5.42188 5.05643 5.42188H8.06571C8.875 5.42188 9.65286 5.73827 10.2264 6.30162L12.1043 8.13827C12.6779 8.70162 13 9.4656 13 10.2605Z" stroke="#1F2128" stroke-linecap="round" stroke-linejoin="round"/>
<path d="M17 6.26506V10.4219C17 12.2188 15.7743 13.4219 13.9436 13.4219H12.2857V9.68923C12.2857 8.89488 11.9636 8.13139 11.39 7.5684L9.51214 5.73293C8.93857 5.16995 8.16071 4.85375 7.35143 4.85375H6V4.42188C6 2.62496 7.22571 1.42188 9.05643 1.42188H12.0657C12.875 1.42188 13.6529 1.73807 14.2264 2.30105L16.1043 4.14424C16.6779 4.70722 17 5.47072 17 6.26506Z" stroke="#1F2128" stroke-linecap="round" stroke-linejoin="round"/>
</svg>
