<svg width="64" height="64" viewBox="0 0 64 64" fill="none" xmlns="http://www.w3.org/2000/svg">
<path fill-rule="evenodd" clip-rule="evenodd" d="M32 64C49.6731 64 64 49.6731 64 32C64 14.3269 49.6731 0 32 0C14.3269 0 0 14.3269 0 32C0 49.6731 14.3269 64 32 64Z" fill="#7364DB"/>
<path d="M47.0835 23.75V27.2792C47.0835 29.5833 45.6252 31.0417 43.321 31.0417H38.3335V20.8479C38.3335 19.2292 39.6606 17.9167 41.2793 17.9167C42.8689 17.9313 44.3272 18.5729 45.3772 19.6229C46.4272 20.6875 47.0835 22.1458 47.0835 23.75Z" stroke="white" stroke-width="1.5" stroke-miterlimit="10" stroke-linecap="round" stroke-linejoin="round"/>
<path d="M17.9165 25.2083V45.625C17.9165 46.8354 19.2873 47.5208 20.2498 46.7917L22.7436 44.925C23.3269 44.4875 24.1436 44.5458 24.6686 45.0708L27.0894 47.5063C27.6582 48.075 28.5915 48.075 29.1603 47.5063L31.6103 45.0563C32.1207 44.5458 32.9373 44.4875 33.5061 44.925L35.9998 46.7917C36.9623 47.5063 38.3332 46.8208 38.3332 45.625V20.8333C38.3332 19.2292 39.6457 17.9167 41.2498 17.9167H25.2082H23.7498C19.3748 17.9167 17.9165 20.5271 17.9165 23.75V25.2083Z" stroke="white" stroke-width="1.5" stroke-miterlimit="10" stroke-linecap="round" stroke-linejoin="round"/>
<path d="M24.1147 29.5833H32.1356" stroke="white" stroke-width="1.5" stroke-linecap="round" stroke-linejoin="round"/>
</svg>
