<svg width="32" height="32" viewBox="0 0 32 32" fill="none" xmlns="http://www.w3.org/2000/svg">
<rect width="32" height="32" rx="8" fill="#FF9500"/>
<path d="M7.16992 11.44L15.9998 16.55L24.7697 11.47" stroke="white" stroke-width="1.5" stroke-linecap="round" stroke-linejoin="round"/>
<path d="M16 25.61V16.54" stroke="white" stroke-width="1.5" stroke-linecap="round" stroke-linejoin="round"/>
<path d="M13.93 6.48L8.5901 9.44C7.38012 10.11 6.39014 11.79 6.39014 13.17V18.82C6.39014 20.2 7.38012 21.88 8.5901 22.55L13.93 25.52C15.07 26.15 16.94 26.15 18.08 25.52L23.4199 22.55C24.6299 21.88 25.6199 20.2 25.6199 18.82V13.17C25.6199 11.79 24.6299 10.11 23.4199 9.44L18.08 6.47C16.93 5.84 15.07 5.84 13.93 6.48Z" stroke="white" stroke-width="1.5" stroke-linecap="round" stroke-linejoin="round"/>
</svg>
