<svg width="16" height="16" viewBox="0 0 16 16" fill="none" xmlns="http://www.w3.org/2000/svg">
<path d="M7.99984 12.3333C10.3931 12.3333 12.3332 10.3932 12.3332 7.99996C12.3332 5.60673 10.3931 3.66663 7.99984 3.66663C5.6066 3.66663 3.6665 5.60673 3.6665 7.99996C3.6665 10.3932 5.6066 12.3333 7.99984 12.3333Z" stroke="#EC8C56" stroke-width="1.5" stroke-linecap="round" stroke-linejoin="round"/>
<path d="M12.7602 12.76L12.6735 12.6734M12.6735 3.32671L12.7602 3.24004L12.6735 3.32671ZM3.24016 12.76L3.32683 12.6734L3.24016 12.76ZM8.00016 1.38671V1.33337V1.38671ZM8.00016 14.6667V14.6134V14.6667ZM1.38683 8.00004H1.3335H1.38683ZM14.6668 8.00004H14.6135H14.6668ZM3.32683 3.32671L3.24016 3.24004L3.32683 3.32671Z" stroke="#EC8C56" stroke-width="2" stroke-linecap="round" stroke-linejoin="round"/>
</svg>
