<svg width="64" height="64" viewBox="0 0 64 64" fill="none" xmlns="http://www.w3.org/2000/svg">
<path fill-rule="evenodd" clip-rule="evenodd" d="M32 64C49.6731 64 64 49.6731 64 32C64 14.3269 49.6731 0 32 0C14.3269 0 0 14.3269 0 32C0 49.6731 14.3269 64 32 64Z" fill="#50D1B2"/>
<path d="M46.0832 31.5V38.7917C46.0832 43.1667 43.1665 46.0833 38.7915 46.0833H24.2082C19.8332 46.0833 16.9165 43.1667 16.9165 38.7917V31.5C16.9165 27.5333 19.3082 24.7625 23.0269 24.2958C23.4061 24.2375 23.7998 24.2083 24.2082 24.2083H38.7915C39.1707 24.2083 39.5353 24.2229 39.8853 24.2812C43.6478 24.7187 46.0832 27.5042 46.0832 31.5Z" stroke="white" stroke-width="1.5" stroke-linecap="round" stroke-linejoin="round"/>
<path d="M39.8876 24.2813C39.5376 24.2229 39.173 24.2084 38.7939 24.2084H24.2105C23.8022 24.2084 23.4085 24.2375 23.0293 24.2959C23.2335 23.8875 23.5251 23.5084 23.8751 23.1584L28.6147 18.4042C30.6126 16.4208 33.8501 16.4208 35.848 18.4042L38.4001 20.9855C39.3335 21.9042 39.8293 23.0708 39.8876 24.2813Z" stroke="white" stroke-width="1.5" stroke-linecap="round" stroke-linejoin="round"/>
<path d="M46.0832 32.2292H41.7082C40.104 32.2292 38.7915 33.5417 38.7915 35.1458C38.7915 36.75 40.104 38.0625 41.7082 38.0625H46.0832" stroke="white" stroke-width="1.5" stroke-linecap="round" stroke-linejoin="round"/>
</svg>
